HIERARCHY
ROOT Hips
{
	OFFSET 0.0000 0.0000 0.0000
	CHANNELS 6 Xposition Yposition Zposition Zrotation Xrotation Yrotation
	JOINT Ab
	{
		OFFSET -0.0000 8.1305 -0.0000
		CHANNELS 3 Zrotation Xrotation Yrotation
		JOINT Chest
		{
			OFFSET -0.0000 26.2902 -0.0000
			CHANNELS 3 Zrotation Xrotation Yrotation
			JOINT Neck
			{
				OFFSET -0.0000 26.2902 0.0000
				CHANNELS 3 Zrotation Xrotation Yrotation
				JOINT Head
				{
					OFFSET -0.0000 10.8167 0.0000
					CHANNELS 3 Zrotation Xrotation Yrotation
					End Site
					{
						OFFSET -0.0000 16.7167 0.0000
					}
				}
			}
			JOINT LeftCollar
			{
				OFFSET -0.0000 26.2902 0.0000
				CHANNELS 3 Zrotation Xrotation Yrotation
				JOINT LeftShoulder
				{
					OFFSET 19.6667 -0.0000 0.0000
					CHANNELS 3 Zrotation Xrotation Yrotation
					JOINT LeftElbow
					{
						OFFSET 27.2190 0.0000 0.0000
						CHANNELS 3 Zrotation Xrotation Yrotation
						JOINT LeftWrist
						{
							OFFSET 30.7431 0.0000 0.0000
							CHANNELS 3 Zrotation Xrotation Yrotation
							End Site
							{
								OFFSET 0.0000 -14.7500 0.0000
							}
						}
					}
				}
			}
			JOINT RightCollar
			{
				OFFSET -0.0000 26.2902 0.0000
				CHANNELS 3 Zrotation Xrotation Yrotation
				JOINT RightShoulder
				{
					OFFSET -19.6667 0.0000 0.0000
					CHANNELS 3 Zrotation Xrotation Yrotation
					JOINT RightElbow
					{
						OFFSET -27.2190 0.0000 0.0000
						CHANNELS 3 Zrotation Xrotation Yrotation
						JOINT RightWrist
						{
							OFFSET -30.7431 0.0000 0.0000
							CHANNELS 3 Zrotation Xrotation Yrotation
							End Site
							{
								OFFSET -0.0000 -14.7500 0.0000
							}
						}
					}
				}
			}
		}
	}
	JOINT LeftHip
	{
		OFFSET 11.8000 0.0000 0.0000
		CHANNELS 3 Zrotation Xrotation Yrotation
		JOINT LeftKnee
		{
			OFFSET -0.0000 -39.7832 0.0000
			CHANNELS 3 Zrotation Xrotation Yrotation
			JOINT LeftAnkle
			{
				OFFSET -0.0000 -41.7317 0.0000
				CHANNELS 3 Zrotation Xrotation Yrotation
				End Site
				{
					OFFSET -0.0000 -4.9167 16.7167
				}
			}
		}
	}
	JOINT RightHip
	{
		OFFSET -11.8000 0.0000 0.0000
		CHANNELS 3 Zrotation Xrotation Yrotation
		JOINT RightKnee
		{
			OFFSET -0.0000 -39.7832 0.0000
			CHANNELS 3 Zrotation Xrotation Yrotation
			JOINT RightAnkle
			{
				OFFSET -0.0000 -41.7317 0.0000
				CHANNELS 3 Zrotation Xrotation Yrotation
				End Site
				{
					OFFSET -0.0000 -4.9167 16.7167
				}
			}
		}
	}
}
MOTION
Frames: 19
Frame Time: 0.010000
-9.1348 88.9549 113.7289 354.2202 340.6423 201.2934 1.8488 349.6885 358.6390 0.1411 20.5907 358.4496 348.1092 348.1932 352.5148 3.5732 11.9909 353.3646 339.4421 357.4373 14.0986 337.5339 61.2536 318.6258 19.9111 350.3389 309.0998 92.6712 352.0518 356.3219 24.7948 356.3430 343.5533 43.2875 49.1152 8.6097 327.1855 345.6086 45.2487 265.2718 351.4478 351.6320 353.6803 1.0238 0.9654 357.9355 8.5213 2.6050 349.4638 347.8332 11.9433 330.7730 320.4935 353.9202 20.6785 36.8870 9.3378 350.8438 345.1936 311.1526 
-8.9254 88.9878 113.2663 354.1859 340.5323 201.4700 1.8882 349.6827 358.6483 0.3395 20.5708 358.4198 348.1177 348.2922 352.4380 3.7399 11.9381 353.2630 339.5313 357.4352 14.1380 337.9388 61.6244 317.9197 20.1716 350.1299 308.9244 92.5786 352.0682 356.4196 24.8281 356.3247 343.6191 42.9518 49.1728 8.9310 326.8845 345.5394 44.9698 265.2443 351.5464 351.2796 353.8345 0.8865 0.9900 357.9646 8.9415 2.5615 349.0305 348.0796 11.8531 330.9155 320.5576 353.8882 20.7284 37.2232 9.5420 350.5002 345.0075 310.8169 
-8.7201 89.0293 112.8043 354.1335 340.4518 201.6310 1.9097 349.7070 358.6642 0.5464 20.5331 358.4000 348.1549 348.4092 352.3641 3.8589 11.8340 353.1645 339.4335 357.4337 14.1205 338.3223 61.6040 317.6350 19.9106 350.2479 308.3541 93.7142 352.0137 357.3723 24.8780 356.3359 343.6500 42.5772 49.0841 9.2889 326.7790 345.5627 44.7495 264.9404 351.7882 351.3310 353.9779 0.7715 0.9344 357.9956 9.3523 2.6998 348.8969 348.3661 11.6573 331.0675 320.6859 353.8364 20.7560 37.5033 9.6469 350.2394 344.7038 310.6140 
-8.5185 89.0888 112.3507 354.0779 340.3525 201.7878 1.9074 349.7161 358.6853 0.7671 20.4715 358.3801 348.2105 348.5292 352.3029 3.9230 11.7398 353.0833 339.4734 357.4361 14.1451 338.6529 61.9114 316.9899 20.1182 350.0107 308.2140 93.8057 351.9969 357.5415 24.8999 356.3523 343.6919 42.2797 49.1179 9.6112 326.4659 345.5207 44.4062 264.7805 351.9726 351.2143 354.1050 0.5814 0.8896 358.0137 9.8031 3.4712 348.3915 348.8882 10.8432 331.1914 320.8404 353.6827 20.7155 37.7346 9.8185 350.0374 344.3348 310.4443 
-8.3250 89.1598 111.8993 354.0277 340.2895 201.9751 1.9433 349.7273 358.6987 0.9173 20.4328 358.3640 348.3742 348.5486 352.2317 3.8701 11.7789 352.9953 339.5774 357.4593 14.1356 339.0520 62.2730 316.2814 20.4429 349.7488 308.1332 93.6840 351.8624 357.5371 24.9284 356.3571 343.7353 42.0657 49.1170 9.8616 326.1276 345.4903 44.0516 264.7211 352.0685 350.6924 354.2321 0.3837 0.8039 358.1754 10.5367 3.0256 347.9244 348.9600 10.9639 331.3250 321.1155 353.5254 20.6566 37.8558 9.9975 349.8673 343.9495 310.3151 
-8.1729 89.2372 111.4145 353.8998 340.3102 202.0857 1.9999 349.7058 358.7460 0.8930 20.5705 358.4088 348.8790 348.5492 352.1940 3.5674 11.7255 352.9362 340.0032 357.5117 14.2449 339.3947 62.6214 315.3284 20.8305 349.4838 308.0936 93.9029 351.6610 357.9571 24.7575 356.4030 343.7546 42.0927 49.0710 10.1765 325.8485 345.4960 43.7386 264.5678 352.2665 350.3620 354.2924 0.3476 0.7011 358.3267 11.1424 3.0361 347.2671 349.1810 10.8195 331.4502 321.5484 353.4597 20.6552 37.8632 10.1082 349.6853 343.5870 310.2824 
-8.0035 89.3286 110.9455 353.8091 340.2455 202.3162 1.9541 349.7129 358.7329 1.1834 20.4573 358.3455 348.6974 348.5564 352.0651 3.7075 11.8662 352.8061 339.7758 357.4670 14.1042 339.6376 62.9387 315.0927 21.0342 349.2934 307.8372 93.8456 351.7393 357.9874 24.9489 356.3269 343.7722 41.7560 49.0055 10.2700 325.5090 345.4667 43.4385 264.5329 352.3575 349.9002 354.3499 0.1279 0.5233 358.3862 11.7806 3.1144 347.2811 349.5633 11.0906 331.4816 321.9967 353.2997 20.6748 37.7574 10.2070 349.5399 343.2519 310.2262 
-7.7878 89.4274 110.5390 353.8318 340.1142 202.5440 1.9905 349.7018 358.7344 1.2810 20.2777 358.3292 348.8714 348.5661 352.0149 3.6342 11.9319 352.7438 339.9878 357.5041 14.1569 339.7332 63.1912 314.6337 21.4064 349.0533 307.5964 93.5409 351.7666 357.9498 24.8175 356.3868 343.7663 41.7489 49.1340 10.4779 325.2102 345.4394 43.1911 264.3004 352.5772 349.7688 354.4686 359.5828 0.4731 358.4796 12.7217 3.0041 346.2819 349.7270 11.4153 331.6115 322.2524 353.0283 20.5892 37.7287 10.3652 349.4094 342.9594 310.1749 
-7.6100 89.5282 110.0894 353.7694 340.1055 202.6802 2.0660 349.7591 358.7497 1.2716 20.1193 358.3435 348.9738 348.6872 351.9835 3.6665 11.9079 352.6907 340.1950 357.5334 14.2334 339.7755 63.4089 314.2985 21.6337 348.9101 307.2573 94.0839 352.1190 358.5910 24.7343 356.4038 343.7713 41.6645 49.3025 10.7493 324.9310 345.4302 42.8761 264.1699 352.7280 349.4498 354.4812 359.1009 0.4538 358.5336 13.7541 3.5000 346.2801 349.9482 11.6806 331.7910 322.6860 352.9178 20.5108 37.5910 10.5022 349.3189 342.6649 310.1554 
-7.4245 89.6296 109.6430 353.7455 340.1114 202.8091 2.0532 349.8530 358.7847 1.5311 19.8974 358.3407 348.7244 348.7359 351.8989 3.8628 11.9779 352.6042 340.0270 357.4806 14.2184 339.9499 63.6788 314.1105 21.8874 348.7318 306.9495 94.4583 352.0831 358.8364 24.7710 356.3884 343.7108 41.2200 49.5581 11.1753 324.6701 345.4254 42.5083 263.9595 352.8347 349.1815 354.6091 358.8871 0.4556 358.5669 14.4601 3.4668 345.5806 350.0319 11.8909 332.0239 323.0910 352.7065 20.3627 37.5228 10.7722 349.2229 342.3828 310.1277 
-7.2536 89.7299 109.2059 353.6921 340.1123 202.8856 2.0809 349.8065 358.8254 1.4631 19.9379 358.3932 349.2894 348.6465 351.8825 3.4419 11.9581 352.5823 340.5513 357.5620 14.4029 339.9916 63.8424 313.5009 22.1442 348.5260 306.5026 94.8171 352.4808 359.5487 24.4171 356.4499 343.6609 41.3762 49.7930 11.6108 324.4152 345.4182 42.2530 263.8649 352.9357 348.9151 354.6799 358.7049 0.4533 358.5961 15.1410 3.5010 344.5787 349.8449 11.9840 332.2497 323.4858 352.4884 20.1780 37.4240 11.0044 349.0930 342.1469 310.1827 
-7.0904 89.8262 108.7694 353.6192 340.1335 202.8881 2.0604 349.8578 358.8916 1.5694 19.7987 358.4445 349.2325 348.5994 351.8219 3.5024 12.0428 352.5265 340.6067 357.5444 14.4629 339.8251 63.9476 313.5230 22.2053 348.4430 305.9360 95.0739 352.8200 359.8024 24.3442 356.4507 343.6477 41.0590 50.0249 12.0661 324.3566 345.4665 41.9726 263.7699 353.0561 349.2005 354.9169 358.8683 0.1771 358.0777 15.0736 3.8615 344.6076 350.0606 12.5198 332.5098 323.8750 352.5068 20.1044 37.2607 11.1296 349.0148 341.8916 310.1753 
-6.9344 89.9199 108.3373 353.5398 340.1553 202.8595 2.0138 349.9266 358.9416 1.7490 19.5906 358.4682 348.9509 348.6023 351.7580 3.7354 12.1278 352.4643 340.4541 357.5005 14.5902 340.3732 64.1590 312.9301 22.3107 348.3462 305.5826 95.3518 353.0301 0.1860 24.3898 356.4457 343.6257 40.4862 50.3533 12.5668 324.2384 345.4675 41.7074 263.7729 353.0835 349.1339 355.0410 359.0311 0.1449 357.6842 14.8418 4.3746 345.1934 350.4255 12.8480 332.7759 324.2594 352.5247 19.9967 37.0872 11.3240 348.8963 341.7355 310.1454 
-6.7783 90.0193 107.8875 353.4216 340.1684 202.7885 1.9371 349.9394 359.0127 1.7451 19.5643 358.5516 349.2630 348.5068 351.7448 3.5252 12.1355 352.4495 340.7285 357.5021 14.9215 341.0279 64.1811 311.9316 22.2970 348.3553 305.1374 95.6877 353.0387 0.5646 24.1245 356.5070 343.6387 40.4379 50.5380 13.0034 324.0964 345.5318 41.5664 263.6351 353.1401 348.9431 354.9480 358.8044 0.1988 357.8969 15.4107 4.1857 345.0573 350.1983 12.9146 333.0431 324.6327 352.6663 19.9353 36.9022 11.4282 348.7771 341.5831 310.1275 
-6.6153 90.1245 107.4097 353.2763 340.1882 202.6760 1.7716 350.0864 359.0898 2.0232 19.3298 358.6084 348.7479 348.4837 351.6610 3.9470 12.2575 352.3756 340.4247 357.4111 14.9573 340.7972 64.0991 312.4407 22.0333 348.4791 304.3491 96.0180 353.0495 0.6804 24.2403 356.4857 343.6565 39.7296 50.7181 13.4716 323.9532 345.6751 41.4123 263.3048 353.2806 348.3982 354.8158 358.5646 0.3042 357.8945 15.4966 4.4682 346.6926 350.9161 13.5258 333.3572 324.9949 352.9092 19.8500 36.7583 11.5681 348.6738 341.4058 310.0708 
-6.4389 90.2294 106.9235 353.2165 340.2383 202.6037 1.6703 350.1880 359.1688 2.2351 19.1450 358.6622 348.5165 348.4332 351.5806 4.1359 12.4016 352.2908 340.2562 357.3771 15.0482 340.9654 64.0339 312.4652 21.7796 348.4838 303.6375 96.0394 352.9870 0.6215 24.3005 356.4803 343.6505 39.2316 50.8456 13.8833 323.9190 345.7757 41.3880 263.1204 353.2450 348.3048 354.8217 358.4238 0.4405 358.0055 15.6604 4.0560 346.9562 350.7305 13.4608 333.7827 325.3984 353.1699 19.7124 36.5407 11.6681 348.5836 341.2390 310.0530 
-6.2706 90.3474 106.4475 353.1561 340.3025 202.5227 1.5767 350.2655 359.2579 2.3733 19.0451 358.7403 348.4583 348.3495 351.4914 4.2399 12.4164 352.1990 340.2596 357.3517 15.1526 340.9715 63.8922 312.5173 21.4640 348.5193 302.8672 96.0460 353.0894 0.6254 24.2907 356.4973 343.6594 38.8692 50.8203 14.2182 324.0110 345.8619 41.5948 262.9261 353.1783 348.2427 354.7952 358.2596 0.5330 357.8822 15.4481 4.4373 346.0161 350.7330 13.1300 334.2131 325.8226 353.4519 19.5761 36.2941 11.8297 348.4866 341.0815 309.9431 
-6.1065 90.4708 105.9972 353.1495 340.3255 202.5084 1.5138 350.3157 359.3298 2.5001 18.8913 358.7987 348.3914 348.4488 351.4121 4.5101 12.1772 352.0944 340.3105 357.3420 15.1905 340.8666 63.8338 312.6393 21.1325 348.5592 302.1940 95.9521 352.8827 0.4312 24.2548 356.4816 343.6505 38.6420 50.7344 14.4675 324.1240 345.9081 41.8536 262.9006 353.1196 348.3131 354.7679 357.9643 0.5451 358.0125 15.7212 3.8679 345.8844 350.1751 12.9224 334.6156 326.2213 353.5859 19.3786 36.0544 12.0521 348.4652 340.8406 309.8094 
-5.9490 90.6040 105.5826 353.1721 340.2460 202.5430 1.4826 350.2897 359.3652 2.5664 18.6875 358.8223 348.4422 348.1660 351.2909 4.4030 12.4957 351.9917 340.3533 357.3516 15.1876 340.6684 63.7507 312.8941 20.7723 348.6127 301.5597 95.7182 352.6482 359.9948 24.3009 356.4753 343.6134 38.2555 50.7364 14.7460 324.3249 345.9584 42.1667 262.8143 353.2422 348.4341 354.6781 357.4674 0.4357 358.0608 15.8432 3.4549 346.5746 349.5676 12.8901 334.9281 326.5349 353.5756 19.1272 35.8209 12.3369 348.3945 340.6833 309.7474 
